<?xml version="1.0" encoding="UTF-8" standalone="no"?>
<!-- Created with Inkscape (http://www.inkscape.org/) -->

<svg
   width="192"
   height="192"
   viewBox="0 0 192 192"
   version="1.1"
   id="svg1"
   xmlns="http://www.w3.org/2000/svg"
   xmlns:svg="http://www.w3.org/2000/svg">
  <defs
     id="defs1">
    <clipPath
       clipPathUnits="userSpaceOnUse"
       id="clipPath31">
      <rect
         style="fill:#ffffff;fill-opacity:1;stroke-width:8.001;paint-order:stroke markers fill"
         id="rect32"
         width="192"
         height="192"
         x="0"
         y="0"
         ry="0" />
    </clipPath>
  </defs>
  <g
     id="layer1">
    <rect
       style="fill:none;fill-opacity:1;stroke:none;stroke-width:8.001;stroke-dasharray:none"
       id="rect11"
       width="192"
       height="192"
       x="-192"
       y="0"
       clip-path="none"
       transform="scale(-1,1)" />
    <path
       style="fill:#000000;fill-opacity:1;stroke-width:8.00126;stroke-dasharray:none"
       d="M 124.23437,48.941406 48.94141,67.765625 67.76562,143.05859 143.05859,124.23633 Z"
       id="path11"
       clip-path="none" />
    <path
       id="path8"
       style="fill:#fffd00;fill-opacity:1;stroke:#000000;stroke-width:12;stroke-dasharray:none;stroke-dashoffset:0;stroke-opacity:1;paint-order:stroke markers fill"
       d="m 192,0 c 0,10.666667 0,21.333333 0,32 -12.54883,3.13737 -25.09766,6.274739 -37.64649,9.412109 6.27409,25.097657 12.54818,50.195314 18.82227,75.292971 C 179.45052,115.13672 185.72526,113.56836 192,112 c 0,10.66667 0,21.33333 0,32 -3.76498,0.94141 -7.52995,1.88281 -11.29492,2.82422 3.76497,15.05859 7.52994,30.11719 11.29492,45.17578 -10.66667,0 -21.33334,0 -32,0 -3.13737,-12.54883 -6.27474,-25.09765 -9.41211,-37.64648 -25.09766,6.27409 -50.19532,12.54817 -75.292972,18.82226 1.56836,6.27474 3.13672,12.54948 4.70508,18.82422 -10.66667,0 -21.33333,0 -32,0 -0.94141,-3.76497 -1.88281,-7.52995 -2.82422,-11.29492 C 30.117188,184.47005 15.058588,188.23503 -2.0628744e-6,192 c 0,-10.66667 0,-21.33333 0,-32 C 12.548828,156.86263 25.097648,153.72526 37.646478,150.58789 31.372388,125.49023 25.098308,100.39258 18.824218,75.294922 12.549478,76.863281 6.2747379,78.431641 -2.0628744e-6,80 c 0,-10.666667 0,-21.333333 0,-32 C 3.7649679,47.058594 7.5299479,46.117187 11.294918,45.175781 7.5299479,30.117187 3.7649679,15.058594 -2.0628744e-6,0 10.666668,0 21.333328,0 31.999998,0 c 3.13737,12.548828 6.27474,25.097656 9.41211,37.646484 C 66.509768,31.372396 91.607418,25.098307 116.70508,18.824219 115.13672,12.549479 113.56836,6.2747397 112,0 c 10.66666,0 21.33333,0 32,0 0.9414,3.764974 1.88281,7.529948 2.82422,11.294922 C 161.88281,7.529948 176.9414,3.764974 192,0 Z m -67.76563,48.941406 c -25.097652,6.27474 -50.195302,12.549479 -75.292962,18.824219 6.27474,25.097655 12.54947,50.195305 18.82421,75.292965 25.097658,-6.27409 50.195312,-12.54817 75.292972,-18.82226 -6.27474,-25.098308 -12.54948,-50.196616 -18.82422,-75.294924 z"
       clip-path="url(#clipPath31)" />
    <path
       style="fill:#ffffff;fill-opacity:1;stroke-width:7.2009;paint-order:stroke markers fill"
       d="M 71.558667,72.905129 85.515113,128.78874 120.4496,90.3796 Z"
       id="path1" />
    <path
       id="path6"
       style="display:inline;fill:#fffa3a;fill-opacity:1;stroke-width:8.001;paint-order:stroke markers fill"
       d="M 192,0 C 176.94141,3.764974 161.88281,7.529948 146.82422,11.294922 143.05925,17.569011 139.29427,23.843099 135.5293,30.117188 154.35287,25.411459 173.17643,20.705729 192,16 192,10.666667 192,5.3333333 192,0 Z M 135.5293,30.117188 C 129.25456,26.352865 122.97982,22.588542 116.70508,18.824219 91.607423,25.098307 66.509766,31.372396 41.412109,37.646484 37.647135,43.921224 33.882162,50.195963 30.117188,56.470703 65.254559,47.686198 100.39193,38.901693 135.5293,30.117188 Z M 30.117188,56.470703 C 23.843099,52.705729 17.569011,48.940755 11.294922,45.175781 7.529948,46.117187 3.764974,47.058594 0,48 0,53.333333 0,58.666667 0,64 10.039063,61.490234 20.078125,58.980469 30.117188,56.470703 Z M 192,112 c -6.27474,1.56836 -12.54948,3.13672 -18.82422,4.70508 -3.76432,6.27474 -7.52865,12.54948 -11.29297,18.82422 C 171.92187,133.01953 181.96094,130.50977 192,128 c 0,-5.33333 0,-10.66667 0,-16 z m -30.11719,23.5293 c -6.27474,-3.76432 -12.54948,-7.52865 -18.82422,-11.29297 -25.09766,6.27409 -50.19531,12.54817 -75.292965,18.82226 -3.764974,6.27474 -7.529948,12.54948 -11.294922,18.82422 35.137369,-8.7845 70.274737,-17.56901 105.412107,-26.35351 z M 56.470703,161.88281 C 50.195963,158.11784 43.921224,154.35286 37.646484,150.58789 25.097656,153.72526 12.548828,156.86263 0,160 c 0,5.33333 0,10.66667 0,16 18.823568,-4.70573 37.647135,-9.41146 56.470703,-14.11719 z" />
    <path
       id="path7"
       style="display:inline;fill:#f5ef00;fill-opacity:1;stroke-width:8.001;paint-order:stroke markers fill"
       d="m 0,0 c 3.764974,15.058594 7.529948,30.117187 11.294922,45.175781 6.274089,3.764974 12.548177,7.529948 18.822266,11.294922 C 25.411459,37.647135 20.705729,18.823568 16,0 10.666667,0 5.3333333,0 0,0 Z m 30.117188,56.470703 c -3.764323,6.27474 -7.528646,12.549479 -11.292969,18.824219 6.274088,25.097658 12.548177,50.195308 18.822265,75.292968 6.27474,3.76497 12.549479,7.52995 18.824219,11.29492 C 47.686198,126.74544 38.901693,91.608072 30.117188,56.470703 Z M 56.470703,161.88281 C 52.705729,168.1569 48.940755,174.43099 45.175781,180.70508 46.117187,184.47005 47.058594,188.23503 48,192 c 5.333333,0 10.666667,0 16,0 -2.509766,-10.03906 -5.019531,-20.07813 -7.529297,-30.11719 z M 112,0 c 1.56836,6.2747397 3.13672,12.549479 4.70508,18.824219 6.27474,3.764323 12.54948,7.528646 18.82422,11.292969 C 133.01953,20.078125 130.50977,10.039063 128,0 122.66667,0 117.33333,0 112,0 Z m 23.5293,30.117188 c -3.76497,6.274739 -7.52995,12.549479 -11.29492,18.824218 6.27474,25.098308 12.54947,50.196616 18.82421,75.294924 6.27474,3.76432 12.54948,7.52865 18.82422,11.29297 C 153.09831,100.39193 144.3138,65.254559 135.5293,30.117188 Z M 161.88281,135.5293 c -3.76497,6.27474 -7.52995,12.54948 -11.29492,18.82422 3.13737,12.54883 6.27474,25.09765 9.41211,37.64648 5.33333,0 10.66667,0 16,0 -4.70573,-18.82357 -9.41146,-37.64713 -14.11719,-56.4707 z" />
    <path
       id="path20"
       style="display:inline;fill:#fffd00;fill-opacity:1;stroke-width:8.001;paint-order:stroke markers fill"
       d="m 16,0 c 4.705729,18.823568 9.411459,37.647135 14.117188,56.470703 3.764974,-6.27474 7.529947,-12.549479 11.294921,-18.824219 C 38.274739,25.097656 35.13737,12.548828 32,0 26.666667,0 21.333333,0 16,0 Z m 14.117188,56.470703 c 8.784505,35.137369 17.56901,70.274737 26.353515,105.412107 3.764974,-6.27474 7.529948,-12.54948 11.294922,-18.82422 C 61.490885,117.96094 55.216146,92.86328 48.941406,67.765625 42.666667,64.000651 36.391927,60.235677 30.117188,56.470703 Z M 56.470703,161.88281 C 58.980469,171.92187 61.490234,181.96094 64,192 c 5.333333,0 10.666667,0 16,0 -1.568359,-6.27474 -3.136719,-12.54948 -4.705078,-18.82422 -6.27474,-3.76432 -12.549479,-7.52865 -18.824219,-11.29297 z M 128,0 c 2.50977,10.039063 5.01953,20.078125 7.5293,30.117188 3.76497,-6.274089 7.52995,-12.548177 11.29492,-18.822266 C 145.88281,7.529948 144.94141,3.764974 144,0 138.66667,0 133.33333,0 128,0 Z m 7.5293,30.117188 c 8.7845,35.137371 17.56901,70.274742 26.35351,105.412112 3.76432,-6.27474 7.52865,-12.54948 11.29297,-18.82422 C 166.90169,91.607423 160.62761,66.509766 154.35352,41.412109 148.07878,37.647135 141.80404,33.882162 135.5293,30.117188 Z M 161.88281,135.5293 C 166.58854,154.35287 171.29427,173.17643 176,192 c 5.33333,0 10.66667,0 16,0 -3.76497,-15.05859 -7.52995,-30.11719 -11.29492,-45.17578 -6.27409,-3.76497 -12.54818,-7.52995 -18.82227,-11.29492 z" />
    <path
       id="path25"
       style="display:inline;fill:#dddb00;fill-opacity:1;stroke-width:8.001;paint-order:stroke markers fill"
       d="m 192,16 c -18.82357,4.705729 -37.64713,9.411459 -56.4707,14.117188 6.27474,3.764974 12.54948,7.529947 18.82422,11.294921 C 166.90235,38.274739 179.45117,35.13737 192,32 c 0,-5.333333 0,-10.666667 0,-16 z m -56.4707,14.117188 c -35.13737,8.784505 -70.274741,17.56901 -105.412112,26.353515 6.274739,3.764974 12.549479,7.529948 18.824218,11.294922 25.097658,-6.27474 50.195316,-12.549479 75.292974,-18.824219 3.76497,-6.274739 7.52995,-12.549479 11.29492,-18.824218 z M 30.117188,56.470703 C 20.078125,58.980469 10.039063,61.490234 0,64 0,69.333333 0,74.666667 0,80 6.2747397,78.431641 12.549479,76.863281 18.824219,75.294922 22.588542,69.020182 26.352865,62.745443 30.117188,56.470703 Z M 192,128 c -10.03906,2.50977 -20.07813,5.01953 -30.11719,7.5293 6.27409,3.76497 12.54818,7.52995 18.82227,11.29492 3.76497,-0.94141 7.52995,-1.88281 11.29492,-2.82422 0,-5.33333 0,-10.66667 0,-16 z m -30.11719,7.5293 c -35.13737,8.7845 -70.274738,17.56901 -105.412107,26.35351 6.27474,3.76432 12.549479,7.52865 18.824219,11.29297 25.097658,-6.27409 50.195308,-12.54817 75.292968,-18.82226 3.76497,-6.27474 7.52995,-12.54948 11.29492,-18.82422 z M 56.470703,161.88281 C 37.647135,166.58854 18.823568,171.29427 0,176 c 0,5.33333 0,10.66667 0,16 15.058594,-3.76497 30.117187,-7.52995 45.175781,-11.29492 3.764974,-6.27409 7.529948,-12.54818 11.294922,-18.82227 z" />
  </g>
</svg>
